<?xml version="1.0" standalone="no"?>
<!DOCTYPE svg PUBLIC "-//W3C//DTD SVG 20010904//EN"
 "http://www.w3.org/TR/2001/REC-SVG-20010904/DTD/svg10.dtd">
<svg version="1.0" xmlns="http://www.w3.org/2000/svg" width="700.000000pt" height="700.000000pt" viewBox="0 0 700.000000 700.000000" preserveAspectRatio="xMidYMid meet">
<metadata>
Created by potrace 1.14, written by Peter Selinger 2001-2017
</metadata>
<g transform="translate(0.000000,700.000000) scale(0.100000,-0.100000)" fill="#000000" stroke="none">
<path d="M1267 6705 c-1 -2 -51 -5 -112 -8 -134 -7 -162 -12 -245 -43 -345
-130 -584 -438 -608 -781 -8 -125 -8 -4448 0 -4688 5 -137 9 -171 32 -238 24
-72 90 -216 105 -227 3 -3 18 -23 34 -45 15 -22 44 -58 65 -80 42 -46 155
-145 165 -145 3 0 26 -14 51 -30 25 -17 96 -50 158 -72 l113 -42 215 -5 c288
-8 4587 -5 4673 3 192 17 429 149 574 320 109 127 197 329 211 481 6 65 8
3800 2 4515 -3 369 -7 394 -85 556 -67 138 -162 256 -275 341 -123 93 -316
173 -430 180 -67 4 -4638 11 -4643 8z m481 -1018 l4 -438 -439 3 -438 3 0 300
0 300 29 60 c57 114 158 189 274 201 31 4 58 7 59 8 1 0 115 1 255 1 l253 0 3
-438z m2917 -719 c0 -636 -4 -1160 -8 -1165 -5 -4 -529 -9 -1166 -11 l-1157
-3 2 1093 c1 601 3 1127 3 1168 l1 75 1163 0 1162 0 0 -1157z m1184 1147 c123
-18 246 -144 267 -273 12 -68 11 -581 -1 -585 -5 -2 -203 -4 -438 -6 l-428 -2
1 435 1 435 27 3 c49 6 524 0 571 -7z m-4099 -1887 l0 -439 -437 3 -438 3 -1
430 c0 237 3 432 7 435 4 3 201 5 438 6 l431 1 0 -439z m4365 433 c13 -1 14
-845 2 -858 -5 -4 -202 -9 -438 -11 l-429 -3 0 435 1 435 32 3 c30 3 810 2
832 -1z m-4367 -1885 c-1 -240 -5 -437 -8 -437 -3 -1 -197 -2 -432 -3 -283 -1
-429 2 -431 9 -2 5 -3 198 -3 428 1 335 4 419 14 426 7 4 205 9 438 10 l425 2
-3 -435z m2917 -725 c0 -638 -4 -1163 -8 -1167 -12 -13 -2296 -9 -2309 4 -8 8
-11 324 -13 1166 l-1 1156 1166 0 1166 0 -1 -1159z m1451 1147 c9 -9 10 -845
1 -854 -4 -4 -200 -8 -437 -9 l-430 -1 0 439 0 438 429 -3 c236 -2 433 -6 437
-10z m-4366 -1886 l0 -439 -258 3 c-143 1 -285 5 -317 8 -145 13 -276 143
-293 290 -8 72 -8 538 0 557 6 15 48 17 437 18 l431 2 0 -439z m4375 133 l0
-300 -31 -60 c-63 -119 -148 -188 -249 -200 -28 -4 -173 -8 -323 -9 l-272 -3
0 439 0 440 438 -4 437 -3 0 -300z"></path>
</g>
</svg>
